<svg width="914" height="474" viewBox="0 0 914 474" fill="none" xmlns="http://www.w3.org/2000/svg">
<path d="M263.033 94.1286V379H211.011L87.075 199.703H84.9885V379H24.7593V94.1286H77.6163L200.578 273.286H203.082V94.1286H263.033Z" fill="black"/>
<path d="M319.14 161V101.857H331.645V150.69H357V161H319.14ZM377.698 161.837C374.868 161.837 372.346 161.347 370.132 160.365C367.918 159.364 366.166 157.891 364.876 155.946C363.606 153.983 362.97 151.538 362.97 148.611C362.97 146.147 363.423 144.077 364.328 142.402C365.233 140.727 366.465 139.38 368.024 138.359C369.584 137.339 371.355 136.569 373.338 136.049C375.34 135.529 377.439 135.164 379.633 134.952C382.213 134.682 384.292 134.432 385.871 134.201C387.45 133.951 388.595 133.585 389.308 133.104C390.02 132.622 390.376 131.91 390.376 130.967V130.793C390.376 128.964 389.798 127.549 388.643 126.548C387.507 125.547 385.89 125.046 383.792 125.046C381.578 125.046 379.816 125.537 378.507 126.519C377.198 127.482 376.332 128.695 375.908 130.158L364.53 129.234C365.107 126.539 366.243 124.209 367.938 122.245C369.632 120.262 371.817 118.741 374.493 117.682C377.188 116.604 380.307 116.065 383.85 116.065C386.314 116.065 388.672 116.354 390.925 116.932C393.196 117.509 395.208 118.404 396.96 119.617C398.731 120.83 400.127 122.39 401.148 124.296C402.168 126.182 402.678 128.444 402.678 131.082V161H391.011V154.849H390.665C389.952 156.235 388.999 157.458 387.806 158.516C386.612 159.556 385.178 160.374 383.503 160.971C381.828 161.549 379.893 161.837 377.698 161.837ZM381.222 153.347C383.031 153.347 384.629 152.991 386.015 152.279C387.402 151.547 388.489 150.565 389.279 149.333C390.068 148.101 390.463 146.705 390.463 145.146V140.439C390.078 140.689 389.548 140.92 388.874 141.132C388.22 141.324 387.479 141.507 386.651 141.68C385.823 141.834 384.995 141.979 384.167 142.114C383.339 142.229 382.588 142.335 381.915 142.431C380.471 142.643 379.21 142.98 378.132 143.442C377.053 143.904 376.216 144.53 375.619 145.319C375.022 146.089 374.724 147.052 374.724 148.207C374.724 149.882 375.33 151.162 376.543 152.048C377.775 152.914 379.335 153.347 381.222 153.347ZM424.525 135.356V161H412.222V116.643H423.947V124.469H424.467C425.449 121.889 427.095 119.848 429.405 118.347C431.715 116.826 434.517 116.065 437.809 116.065C440.889 116.065 443.575 116.739 445.866 118.087C448.157 119.434 449.938 121.36 451.208 123.862C452.479 126.346 453.114 129.311 453.114 132.757V161H440.812V134.952C440.831 132.237 440.138 130.119 438.733 128.598C437.327 127.058 435.393 126.288 432.928 126.288C431.273 126.288 429.809 126.644 428.539 127.357C427.287 128.069 426.305 129.109 425.593 130.476C424.9 131.823 424.544 133.45 424.525 135.356ZM482.794 178.558C478.809 178.558 475.391 178.009 472.542 176.912C469.712 175.834 467.46 174.361 465.785 172.494C464.11 170.626 463.022 168.528 462.521 166.198L473.899 164.668C474.246 165.553 474.795 166.381 475.545 167.151C476.296 167.921 477.288 168.537 478.52 168.999C479.771 169.481 481.292 169.721 483.083 169.721C485.759 169.721 487.963 169.067 489.696 167.758C491.448 166.468 492.324 164.302 492.324 161.26V153.145H491.804C491.265 154.377 490.456 155.542 489.378 156.639C488.3 157.737 486.914 158.632 485.22 159.325C483.526 160.018 481.504 160.365 479.155 160.365C475.825 160.365 472.792 159.595 470.059 158.054C467.344 156.495 465.178 154.117 463.561 150.921C461.963 147.706 461.164 143.644 461.164 138.735C461.164 133.71 461.982 129.513 463.619 126.144C465.255 122.775 467.431 120.253 470.145 118.578C472.879 116.903 475.873 116.065 479.126 116.065C481.61 116.065 483.689 116.489 485.364 117.336C487.039 118.164 488.387 119.203 489.407 120.455C490.447 121.687 491.246 122.9 491.804 124.093H492.266V116.643H504.482V161.433C504.482 165.207 503.557 168.364 501.709 170.905C499.861 173.447 497.3 175.353 494.028 176.623C490.774 177.913 487.029 178.558 482.794 178.558ZM483.054 151.124C485.037 151.124 486.712 150.633 488.079 149.651C489.465 148.65 490.524 147.225 491.255 145.377C492.006 143.509 492.382 141.276 492.382 138.677C492.382 136.078 492.016 133.825 491.284 131.92C490.553 129.994 489.494 128.502 488.108 127.443C486.721 126.384 485.037 125.855 483.054 125.855C481.032 125.855 479.329 126.404 477.942 127.501C476.556 128.579 475.507 130.081 474.795 132.006C474.082 133.931 473.726 136.155 473.726 138.677C473.726 141.238 474.082 143.452 474.795 145.319C475.526 147.167 476.575 148.602 477.942 149.622C479.329 150.623 481.032 151.124 483.054 151.124ZM542.717 142.114V116.643H555.019V161H543.207V152.943H542.745C541.744 155.542 540.079 157.631 537.749 159.21C535.439 160.788 532.619 161.578 529.288 161.578C526.323 161.578 523.715 160.904 521.462 159.556C519.21 158.208 517.448 156.293 516.177 153.809C514.926 151.326 514.291 148.351 514.271 144.886V116.643H526.574V142.691C526.593 145.309 527.295 147.379 528.682 148.9C530.068 150.421 531.926 151.181 534.255 151.181C535.738 151.181 537.124 150.844 538.414 150.171C539.704 149.478 540.743 148.457 541.533 147.11C542.341 145.762 542.736 144.097 542.717 142.114ZM577.508 161.837C574.678 161.837 572.156 161.347 569.942 160.365C567.728 159.364 565.976 157.891 564.686 155.946C563.415 153.983 562.78 151.538 562.78 148.611C562.78 146.147 563.232 144.077 564.137 142.402C565.042 140.727 566.274 139.38 567.833 138.359C569.393 137.339 571.164 136.569 573.147 136.049C575.149 135.529 577.248 135.164 579.443 134.952C582.022 134.682 584.102 134.432 585.68 134.201C587.259 133.951 588.404 133.585 589.117 133.104C589.829 132.622 590.185 131.91 590.185 130.967V130.793C590.185 128.964 589.608 127.549 588.453 126.548C587.317 125.547 585.7 125.046 583.601 125.046C581.387 125.046 579.625 125.537 578.316 126.519C577.007 127.482 576.141 128.695 575.717 130.158L564.339 129.234C564.917 126.539 566.053 124.209 567.747 122.245C569.441 120.262 571.626 118.741 574.302 117.682C576.998 116.604 580.116 116.065 583.659 116.065C586.123 116.065 588.481 116.354 590.734 116.932C593.006 117.509 595.018 118.404 596.77 119.617C598.541 120.83 599.937 122.39 600.957 124.296C601.977 126.182 602.487 128.444 602.487 131.082V161H590.821V154.849H590.474C589.762 156.235 588.809 157.458 587.615 158.516C586.421 159.556 584.987 160.374 583.312 160.971C581.637 161.549 579.702 161.837 577.508 161.837ZM581.031 153.347C582.841 153.347 584.439 152.991 585.825 152.279C587.211 151.547 588.299 150.565 589.088 149.333C589.877 148.101 590.272 146.705 590.272 145.146V140.439C589.887 140.689 589.357 140.92 588.684 141.132C588.029 141.324 587.288 141.507 586.46 141.68C585.632 141.834 584.804 141.979 583.976 142.114C583.149 142.229 582.398 142.335 581.724 142.431C580.28 142.643 579.019 142.98 577.941 143.442C576.863 143.904 576.025 144.53 575.428 145.319C574.832 146.089 574.533 147.052 574.533 148.207C574.533 149.882 575.14 151.162 576.353 152.048C577.585 152.914 579.144 153.347 581.031 153.347ZM632.016 178.558C628.03 178.558 624.613 178.009 621.764 176.912C618.934 175.834 616.681 174.361 615.006 172.494C613.331 170.626 612.244 168.528 611.743 166.198L623.121 164.668C623.468 165.553 624.016 166.381 624.767 167.151C625.518 167.921 626.509 168.537 627.742 168.999C628.993 169.481 630.514 169.721 632.304 169.721C634.98 169.721 637.185 169.067 638.917 167.758C640.669 166.468 641.545 164.302 641.545 161.26V153.145H641.026C640.487 154.377 639.678 155.542 638.6 156.639C637.522 157.737 636.136 158.632 634.441 159.325C632.747 160.018 630.726 160.365 628.377 160.365C625.046 160.365 622.014 159.595 619.28 158.054C616.566 156.495 614.4 154.117 612.783 150.921C611.185 147.706 610.386 143.644 610.386 138.735C610.386 133.71 611.204 129.513 612.84 126.144C614.477 122.775 616.652 120.253 619.367 118.578C622.101 116.903 625.094 116.065 628.348 116.065C630.832 116.065 632.911 116.489 634.586 117.336C636.261 118.164 637.608 119.203 638.629 120.455C639.668 121.687 640.467 122.9 641.026 124.093H641.488V116.643H653.703V161.433C653.703 165.207 652.779 168.364 650.931 170.905C649.083 173.447 646.522 175.353 643.249 176.623C639.996 177.913 636.251 178.558 632.016 178.558ZM632.275 151.124C634.258 151.124 635.933 150.633 637.3 149.651C638.686 148.65 639.745 147.225 640.477 145.377C641.228 143.509 641.603 141.276 641.603 138.677C641.603 136.078 641.237 133.825 640.506 131.92C639.774 129.994 638.715 128.502 637.329 127.443C635.943 126.384 634.258 125.855 632.275 125.855C630.254 125.855 628.55 126.404 627.164 127.501C625.778 128.579 624.729 130.081 624.016 132.006C623.304 133.931 622.948 136.155 622.948 138.677C622.948 141.238 623.304 143.452 624.016 145.319C624.748 147.167 625.797 148.602 627.164 149.622C628.55 150.623 630.254 151.124 632.275 151.124ZM683.708 161.866C679.145 161.866 675.218 160.942 671.925 159.094C668.653 157.227 666.131 154.589 664.359 151.181C662.588 147.754 661.703 143.702 661.703 139.024C661.703 134.461 662.588 130.456 664.359 127.01C666.131 123.564 668.624 120.878 671.839 118.953C675.073 117.028 678.866 116.065 683.217 116.065C686.143 116.065 688.867 116.537 691.389 117.48C693.931 118.404 696.145 119.8 698.032 121.668C699.937 123.535 701.42 125.884 702.479 128.714C703.538 131.525 704.067 134.817 704.067 138.59V141.969H666.612V134.345H692.487C692.487 132.574 692.102 131.005 691.332 129.638C690.562 128.271 689.493 127.203 688.126 126.433C686.779 125.643 685.21 125.249 683.419 125.249C681.552 125.249 679.896 125.682 678.452 126.548C677.027 127.395 675.911 128.541 675.102 129.985C674.294 131.409 673.88 132.998 673.86 134.75V141.998C673.86 144.193 674.265 146.089 675.073 147.687C675.901 149.285 677.066 150.517 678.567 151.384C680.069 152.25 681.85 152.683 683.91 152.683C685.277 152.683 686.528 152.491 687.664 152.105C688.8 151.72 689.772 151.143 690.581 150.373C691.389 149.603 692.006 148.659 692.429 147.543L703.807 148.294C703.23 151.027 702.046 153.415 700.255 155.455C698.484 157.477 696.193 159.056 693.382 160.191C690.591 161.308 687.366 161.866 683.708 161.866ZM368.609 297.857V357H357.808L332.078 319.776H331.645V357H319.14V297.857H330.114L355.643 335.052H356.162V297.857H368.609ZM378.709 357V312.643H391.011V357H378.709ZM384.889 306.925C383.06 306.925 381.491 306.318 380.182 305.106C378.892 303.873 378.247 302.401 378.247 300.687C378.247 298.993 378.892 297.539 380.182 296.327C381.491 295.094 383.06 294.478 384.889 294.478C386.718 294.478 388.278 295.094 389.567 296.327C390.877 297.539 391.531 298.993 391.531 300.687C391.531 302.401 390.877 303.873 389.567 305.106C388.278 306.318 386.718 306.925 384.889 306.925ZM420.85 374.558C416.865 374.558 413.447 374.009 410.598 372.912C407.768 371.834 405.515 370.361 403.841 368.494C402.166 366.626 401.078 364.528 400.577 362.198L411.955 360.668C412.302 361.553 412.851 362.381 413.601 363.151C414.352 363.921 415.344 364.537 416.576 364.999C417.827 365.481 419.348 365.721 421.139 365.721C423.815 365.721 426.019 365.067 427.752 363.758C429.504 362.468 430.38 360.302 430.38 357.26V349.145H429.86C429.321 350.377 428.512 351.542 427.434 352.639C426.356 353.737 424.97 354.632 423.276 355.325C421.581 356.018 419.56 356.365 417.211 356.365C413.881 356.365 410.848 355.595 408.115 354.054C405.4 352.495 403.234 350.117 401.617 346.921C400.019 343.706 399.22 339.644 399.22 334.735C399.22 329.71 400.038 325.513 401.675 322.144C403.311 318.775 405.487 316.253 408.201 314.578C410.935 312.903 413.929 312.065 417.182 312.065C419.666 312.065 421.745 312.489 423.42 313.336C425.095 314.164 426.443 315.203 427.463 316.455C428.503 317.687 429.302 318.9 429.86 320.093H430.322V312.643H442.538V357.433C442.538 361.207 441.613 364.364 439.765 366.905C437.917 369.447 435.356 371.353 432.084 372.623C428.83 373.913 425.085 374.558 420.85 374.558ZM421.11 347.124C423.093 347.124 424.768 346.633 426.135 345.651C427.521 344.65 428.58 343.225 429.311 341.377C430.062 339.509 430.437 337.276 430.437 334.677C430.437 332.078 430.072 329.825 429.34 327.92C428.609 325.994 427.55 324.502 426.164 323.443C424.777 322.384 423.093 321.855 421.11 321.855C419.088 321.855 417.384 322.404 415.998 323.501C414.612 324.579 413.563 326.081 412.851 328.006C412.138 329.931 411.782 332.155 411.782 334.677C411.782 337.238 412.138 339.452 412.851 341.319C413.582 343.167 414.631 344.602 415.998 345.622C417.384 346.623 419.088 347.124 421.11 347.124ZM472.542 357.866C467.979 357.866 464.052 356.942 460.76 355.094C457.487 353.227 454.965 350.589 453.194 347.181C451.422 343.754 450.537 339.702 450.537 335.024C450.537 330.461 451.422 326.456 453.194 323.01C454.965 319.564 457.458 316.878 460.673 314.953C463.908 313.028 467.7 312.065 472.051 312.065C474.978 312.065 477.702 312.537 480.224 313.48C482.765 314.404 484.979 315.8 486.866 317.668C488.772 319.535 490.254 321.884 491.313 324.714C492.372 327.525 492.901 330.817 492.901 334.59V337.969H455.446V330.345H481.321C481.321 328.574 480.936 327.005 480.166 325.638C479.396 324.271 478.327 323.203 476.961 322.433C475.613 321.643 474.044 321.249 472.253 321.249C470.386 321.249 468.73 321.682 467.286 322.548C465.862 323.395 464.745 324.541 463.936 325.985C463.128 327.409 462.714 328.998 462.695 330.75V337.998C462.695 340.193 463.099 342.089 463.908 343.687C464.735 345.285 465.9 346.517 467.402 347.384C468.903 348.25 470.684 348.683 472.744 348.683C474.111 348.683 475.363 348.491 476.498 348.105C477.634 347.72 478.607 347.143 479.415 346.373C480.224 345.603 480.84 344.659 481.263 343.543L492.641 344.294C492.064 347.027 490.88 349.415 489.089 351.455C487.318 353.477 485.027 355.056 482.216 356.191C479.425 357.308 476.2 357.866 472.542 357.866ZM500.93 357V312.643H512.856V320.382H513.318C514.127 317.629 515.484 315.55 517.39 314.145C519.296 312.72 521.491 312.008 523.974 312.008C524.591 312.008 525.255 312.046 525.967 312.123C526.679 312.2 527.305 312.306 527.844 312.441V323.357C527.267 323.183 526.468 323.029 525.447 322.895C524.427 322.76 523.493 322.693 522.646 322.693C520.836 322.693 519.219 323.087 517.795 323.877C516.389 324.647 515.272 325.725 514.445 327.111C513.636 328.497 513.232 330.095 513.232 331.905V357H500.93ZM534.205 357V312.643H546.507V357H534.205ZM540.385 306.925C538.556 306.925 536.987 306.318 535.677 305.106C534.388 303.873 533.743 302.401 533.743 300.687C533.743 298.993 534.388 297.539 535.677 296.327C536.987 295.094 538.556 294.478 540.385 294.478C542.214 294.478 543.773 295.094 545.063 296.327C546.372 297.539 547.027 298.993 547.027 300.687C547.027 302.401 546.372 303.873 545.063 305.106C543.773 306.318 542.214 306.925 540.385 306.925ZM569.01 357.837C566.18 357.837 563.658 357.347 561.444 356.365C559.23 355.364 557.478 353.891 556.188 351.946C554.918 349.983 554.282 347.538 554.282 344.611C554.282 342.147 554.735 340.077 555.64 338.402C556.544 336.727 557.777 335.38 559.336 334.359C560.895 333.339 562.667 332.569 564.65 332.049C566.652 331.529 568.75 331.164 570.945 330.952C573.525 330.682 575.604 330.432 577.183 330.201C578.762 329.951 579.907 329.585 580.619 329.104C581.332 328.622 581.688 327.91 581.688 326.967V326.793C581.688 324.964 581.11 323.549 579.955 322.548C578.819 321.547 577.202 321.046 575.104 321.046C572.89 321.046 571.128 321.537 569.819 322.519C568.51 323.482 567.643 324.695 567.22 326.158L555.842 325.234C556.419 322.539 557.555 320.209 559.249 318.245C560.944 316.262 563.129 314.741 565.805 313.682C568.5 312.604 571.619 312.065 575.161 312.065C577.626 312.065 579.984 312.354 582.237 312.932C584.508 313.509 586.52 314.404 588.272 315.617C590.043 316.83 591.439 318.39 592.459 320.296C593.48 322.182 593.99 324.444 593.99 327.082V357H582.323V350.849H581.977C581.264 352.235 580.311 353.458 579.118 354.516C577.924 355.556 576.49 356.374 574.815 356.971C573.14 357.549 571.205 357.837 569.01 357.837ZM572.533 349.347C574.343 349.347 575.941 348.991 577.327 348.279C578.713 347.547 579.801 346.565 580.59 345.333C581.38 344.101 581.774 342.705 581.774 341.146V336.439C581.389 336.689 580.86 336.92 580.186 337.132C579.532 337.324 578.79 337.507 577.963 337.68C577.135 337.834 576.307 337.979 575.479 338.114C574.651 338.229 573.9 338.335 573.226 338.431C571.783 338.643 570.522 338.98 569.443 339.442C568.365 339.904 567.528 340.53 566.931 341.319C566.334 342.089 566.036 343.052 566.036 344.207C566.036 345.882 566.642 347.162 567.855 348.048C569.087 348.914 570.647 349.347 572.533 349.347ZM622.587 357V297.857H635.091V346.69H660.446V357H622.587ZM668.496 357V312.643H680.798V357H668.496ZM674.676 306.925C672.847 306.925 671.278 306.318 669.969 305.106C668.679 303.873 668.034 302.401 668.034 300.687C668.034 298.993 668.679 297.539 669.969 296.327C671.278 295.094 672.847 294.478 674.676 294.478C676.505 294.478 678.065 295.094 679.354 296.327C680.664 297.539 681.318 298.993 681.318 300.687C681.318 302.401 680.664 303.873 679.354 305.106C678.065 306.318 676.505 306.925 674.676 306.925ZM690.653 357V312.643H702.378V320.469H702.897C703.822 317.87 705.362 315.819 707.518 314.318C709.674 312.816 712.254 312.065 715.257 312.065C718.299 312.065 720.889 312.826 723.026 314.347C725.163 315.848 726.587 317.889 727.3 320.469H727.762C728.667 317.928 730.303 315.896 732.671 314.376C735.058 312.835 737.879 312.065 741.132 312.065C745.272 312.065 748.631 313.384 751.211 316.022C753.81 318.64 755.11 322.356 755.11 327.169V357H742.836V329.594C742.836 327.13 742.182 325.282 740.873 324.05C739.563 322.818 737.927 322.202 735.963 322.202C733.73 322.202 731.988 322.914 730.736 324.339C729.485 325.744 728.859 327.602 728.859 329.912V357H716.932V329.335C716.932 327.159 716.307 325.426 715.055 324.136C713.823 322.847 712.196 322.202 710.175 322.202C708.808 322.202 707.576 322.548 706.478 323.241C705.4 323.915 704.544 324.868 703.908 326.1C703.273 327.313 702.955 328.738 702.955 330.374V357H690.653ZM764.827 357V312.643H777.129V357H764.827ZM771.007 306.925C769.178 306.925 767.609 306.318 766.3 305.106C765.01 303.873 764.365 302.401 764.365 300.687C764.365 298.993 765.01 297.539 766.3 296.327C767.609 295.094 769.178 294.478 771.007 294.478C772.836 294.478 774.395 295.094 775.685 296.327C776.995 297.539 777.649 298.993 777.649 300.687C777.649 302.401 776.995 303.873 775.685 305.106C774.395 306.318 772.836 306.925 771.007 306.925ZM810.578 312.643V321.884H783.865V312.643H810.578ZM789.93 302.016H802.232V343.369C802.232 344.505 802.405 345.391 802.752 346.026C803.098 346.642 803.579 347.075 804.196 347.326C804.831 347.576 805.562 347.701 806.39 347.701C806.968 347.701 807.545 347.653 808.123 347.557C808.701 347.441 809.143 347.355 809.451 347.297L811.386 356.451C810.77 356.644 809.904 356.865 808.787 357.116C807.671 357.385 806.313 357.549 804.715 357.606C801.75 357.722 799.151 357.327 796.918 356.422C794.704 355.518 792.981 354.112 791.749 352.206C790.517 350.3 789.91 347.894 789.93 344.987V302.016ZM838.33 357.866C833.767 357.866 829.839 356.942 826.547 355.094C823.274 353.227 820.752 350.589 818.981 347.181C817.21 343.754 816.324 339.702 816.324 335.024C816.324 330.461 817.21 326.456 818.981 323.01C820.752 319.564 823.246 316.878 826.461 314.953C829.695 313.028 833.488 312.065 837.839 312.065C840.765 312.065 843.489 312.537 846.011 313.48C848.553 314.404 850.767 315.8 852.653 317.668C854.559 319.535 856.042 321.884 857.101 324.714C858.16 327.525 858.689 330.817 858.689 334.59V337.969H821.234V330.345H847.109C847.109 328.574 846.724 327.005 845.954 325.638C845.184 324.271 844.115 323.203 842.748 322.433C841.4 321.643 839.831 321.249 838.041 321.249C836.173 321.249 834.518 321.682 833.074 322.548C831.649 323.395 830.533 324.541 829.724 325.985C828.915 327.409 828.501 328.998 828.482 330.75V337.998C828.482 340.193 828.887 342.089 829.695 343.687C830.523 345.285 831.688 346.517 833.189 347.384C834.691 348.25 836.472 348.683 838.532 348.683C839.899 348.683 841.15 348.491 842.286 348.105C843.422 347.72 844.394 347.143 845.203 346.373C846.011 345.603 846.627 344.659 847.051 343.543L858.429 344.294C857.851 347.027 856.667 349.415 854.877 351.455C853.106 353.477 850.815 355.056 848.004 356.191C845.212 357.308 841.988 357.866 838.33 357.866ZM883.062 357.722C879.693 357.722 876.642 356.856 873.908 355.123C871.193 353.371 869.037 350.801 867.439 347.412C865.86 344.005 865.071 339.827 865.071 334.879C865.071 329.797 865.889 325.571 867.526 322.202C869.162 318.813 871.338 316.282 874.052 314.607C876.786 312.912 879.78 312.065 883.033 312.065C885.517 312.065 887.587 312.489 889.242 313.336C890.917 314.164 892.265 315.203 893.285 316.455C894.325 317.687 895.114 318.9 895.653 320.093H896.029V297.857H908.302V357H896.173V349.896H895.653C895.076 351.128 894.257 352.351 893.199 353.563C892.159 354.757 890.802 355.749 889.127 356.538C887.471 357.327 885.45 357.722 883.062 357.722ZM886.961 347.932C888.944 347.932 890.619 347.393 891.986 346.315C893.372 345.218 894.431 343.687 895.162 341.723C895.913 339.76 896.289 337.459 896.289 334.821C896.289 332.184 895.923 329.893 895.191 327.948C894.46 326.004 893.401 324.502 892.015 323.443C890.628 322.384 888.944 321.855 886.961 321.855C884.939 321.855 883.236 322.404 881.849 323.501C880.463 324.598 879.414 326.119 878.702 328.064C877.989 330.008 877.633 332.261 877.633 334.821C877.633 337.401 877.989 339.683 878.702 341.666C879.433 343.629 880.482 345.17 881.849 346.286C883.236 347.384 884.939 347.932 886.961 347.932Z" fill="black"/>
<path d="M331.645 199.857V259H319.14V199.857H331.645ZM354.004 233.356V259H341.702V214.643H353.426V222.469H353.946C354.928 219.889 356.574 217.848 358.884 216.347C361.194 214.826 363.996 214.065 367.288 214.065C370.368 214.065 373.054 214.739 375.345 216.087C377.636 217.434 379.417 219.36 380.687 221.862C381.958 224.346 382.593 227.311 382.593 230.757V259H370.291V232.952C370.31 230.237 369.617 228.119 368.212 226.598C366.806 225.058 364.872 224.288 362.407 224.288C360.752 224.288 359.288 224.644 358.018 225.357C356.766 226.069 355.785 227.109 355.072 228.476C354.379 229.823 354.023 231.45 354.004 233.356ZM415.883 214.643V223.884H389.17V214.643H415.883ZM395.235 204.016H407.537V245.369C407.537 246.505 407.71 247.391 408.057 248.026C408.403 248.642 408.885 249.075 409.501 249.326C410.136 249.576 410.868 249.701 411.695 249.701C412.273 249.701 412.851 249.653 413.428 249.557C414.006 249.441 414.449 249.355 414.757 249.297L416.691 258.451C416.075 258.644 415.209 258.865 414.092 259.116C412.976 259.385 411.618 259.549 410.021 259.606C407.056 259.722 404.457 259.327 402.223 258.422C400.009 257.518 398.286 256.112 397.054 254.206C395.822 252.3 395.216 249.894 395.235 246.987V204.016ZM443.635 259.866C439.072 259.866 435.145 258.942 431.853 257.094C428.58 255.227 426.058 252.589 424.286 249.181C422.515 245.754 421.63 241.702 421.63 237.024C421.63 232.461 422.515 228.456 424.286 225.01C426.058 221.564 428.551 218.878 431.766 216.953C435 215.028 438.793 214.065 443.144 214.065C446.07 214.065 448.795 214.537 451.317 215.48C453.858 216.404 456.072 217.8 457.959 219.668C459.865 221.535 461.347 223.884 462.406 226.714C463.465 229.525 463.994 232.817 463.994 236.59V239.969H426.539V232.345H452.414C452.414 230.574 452.029 229.005 451.259 227.638C450.489 226.271 449.42 225.203 448.053 224.433C446.706 223.643 445.137 223.249 443.346 223.249C441.479 223.249 439.823 223.682 438.379 224.548C436.954 225.395 435.838 226.541 435.029 227.985C434.221 229.409 433.807 230.998 433.787 232.75V239.998C433.787 242.193 434.192 244.089 435 245.687C435.828 247.285 436.993 248.517 438.495 249.384C439.996 250.25 441.777 250.683 443.837 250.683C445.204 250.683 446.455 250.491 447.591 250.105C448.727 249.72 449.699 249.143 450.508 248.373C451.317 247.603 451.933 246.659 452.356 245.543L463.734 246.294C463.157 249.027 461.973 251.415 460.182 253.455C458.411 255.477 456.12 257.056 453.309 258.191C450.518 259.308 447.293 259.866 443.635 259.866ZM492.006 276.558C488.021 276.558 484.604 276.009 481.754 274.912C478.924 273.834 476.672 272.361 474.997 270.494C473.322 268.626 472.234 266.528 471.734 264.198L483.112 262.668C483.458 263.553 484.007 264.381 484.758 265.151C485.509 265.921 486.5 266.537 487.732 266.999C488.984 267.481 490.504 267.721 492.295 267.721C494.971 267.721 497.175 267.067 498.908 265.758C500.66 264.468 501.536 262.302 501.536 259.26V251.145H501.016C500.477 252.377 499.669 253.542 498.59 254.639C497.512 255.737 496.126 256.632 494.432 257.325C492.738 258.018 490.716 258.365 488.367 258.365C485.037 258.365 482.005 257.595 479.271 256.054C476.556 254.495 474.39 252.117 472.773 248.921C471.175 245.706 470.376 241.644 470.376 236.735C470.376 231.71 471.194 227.513 472.831 224.144C474.467 220.775 476.643 218.253 479.357 216.578C482.091 214.903 485.085 214.065 488.339 214.065C490.822 214.065 492.901 214.489 494.576 215.336C496.251 216.164 497.599 217.203 498.619 218.455C499.659 219.687 500.458 220.9 501.016 222.093H501.478V214.643H513.694V259.433C513.694 263.207 512.77 266.364 510.921 268.905C509.073 271.447 506.513 273.353 503.24 274.623C499.986 275.913 496.242 276.558 492.006 276.558ZM492.266 249.124C494.249 249.124 495.924 248.633 497.291 247.651C498.677 246.65 499.736 245.225 500.467 243.377C501.218 241.509 501.594 239.276 501.594 236.677C501.594 234.078 501.228 231.825 500.496 229.92C499.765 227.994 498.706 226.502 497.32 225.443C495.934 224.384 494.249 223.855 492.266 223.855C490.245 223.855 488.541 224.404 487.155 225.501C485.768 226.579 484.719 228.081 484.007 230.006C483.295 231.931 482.938 234.155 482.938 236.677C482.938 239.238 483.295 241.452 484.007 243.319C484.738 245.167 485.788 246.602 487.155 247.622C488.541 248.623 490.245 249.124 492.266 249.124ZM523.484 259V214.643H535.41V222.382H535.872C536.681 219.629 538.038 217.55 539.944 216.145C541.85 214.72 544.045 214.008 546.528 214.008C547.145 214.008 547.809 214.046 548.521 214.123C549.233 214.2 549.859 214.306 550.398 214.441V225.357C549.821 225.183 549.022 225.029 548.001 224.895C546.981 224.76 546.047 224.693 545.2 224.693C543.39 224.693 541.773 225.087 540.348 225.877C538.943 226.647 537.826 227.725 536.999 229.111C536.19 230.497 535.786 232.095 535.786 233.905V259H523.484ZM568.137 259.837C565.307 259.837 562.785 259.347 560.571 258.365C558.357 257.364 556.605 255.891 555.315 253.946C554.044 251.983 553.409 249.538 553.409 246.611C553.409 244.147 553.861 242.077 554.766 240.402C555.671 238.727 556.903 237.38 558.462 236.359C560.022 235.339 561.793 234.569 563.776 234.049C565.778 233.529 567.877 233.164 570.072 232.952C572.651 232.682 574.731 232.432 576.309 232.201C577.888 231.951 579.033 231.585 579.746 231.104C580.458 230.622 580.814 229.91 580.814 228.967V228.793C580.814 226.964 580.237 225.549 579.082 224.548C577.946 223.547 576.329 223.046 574.23 223.046C572.016 223.046 570.254 223.537 568.945 224.519C567.636 225.482 566.77 226.695 566.346 228.158L554.968 227.234C555.546 224.539 556.682 222.209 558.376 220.245C560.07 218.262 562.255 216.741 564.931 215.682C567.626 214.604 570.745 214.065 574.288 214.065C576.752 214.065 579.11 214.354 581.363 214.932C583.635 215.509 585.647 216.404 587.399 217.617C589.17 218.83 590.566 220.39 591.586 222.296C592.606 224.182 593.116 226.444 593.116 229.082V259H581.45V252.849H581.103C580.391 254.235 579.438 255.458 578.244 256.516C577.05 257.556 575.616 258.374 573.941 258.971C572.266 259.549 570.331 259.837 568.137 259.837ZM571.66 251.347C573.47 251.347 575.067 250.991 576.454 250.279C577.84 249.547 578.928 248.565 579.717 247.333C580.506 246.101 580.901 244.705 580.901 243.146V238.439C580.516 238.689 579.986 238.92 579.313 239.132C578.658 239.324 577.917 239.507 577.089 239.68C576.261 239.834 575.433 239.979 574.605 240.114C573.778 240.229 573.027 240.335 572.353 240.431C570.909 240.643 569.648 240.98 568.57 241.442C567.492 241.904 566.654 242.53 566.057 243.319C565.461 244.089 565.162 245.052 565.162 246.207C565.162 247.882 565.769 249.162 566.982 250.048C568.214 250.914 569.773 251.347 571.66 251.347ZM626.254 214.643V223.884H599.542V214.643H626.254ZM605.606 204.016H617.909V245.369C617.909 246.505 618.082 247.391 618.428 248.026C618.775 248.642 619.256 249.075 619.872 249.326C620.508 249.576 621.239 249.701 622.067 249.701C622.645 249.701 623.222 249.653 623.8 249.557C624.377 249.441 624.82 249.355 625.128 249.297L627.063 258.451C626.447 258.644 625.581 258.865 624.464 259.116C623.347 259.385 621.99 259.549 620.392 259.606C617.427 259.722 614.828 259.327 612.595 258.422C610.381 257.518 608.658 256.112 607.426 254.206C606.194 252.3 605.587 249.894 605.606 246.987V204.016ZM634.268 259V214.643H646.57V259H634.268ZM640.448 208.925C638.619 208.925 637.05 208.318 635.741 207.106C634.451 205.873 633.806 204.401 633.806 202.687C633.806 200.993 634.451 199.539 635.741 198.327C637.05 197.094 638.619 196.478 640.448 196.478C642.277 196.478 643.836 197.094 645.126 198.327C646.435 199.539 647.09 200.993 647.09 202.687C647.09 204.401 646.435 205.873 645.126 207.106C643.836 208.318 642.277 208.925 640.448 208.925ZM676.467 259.866C671.981 259.866 668.101 258.913 664.829 257.007C661.575 255.082 659.063 252.406 657.291 248.979C655.52 245.533 654.635 241.538 654.635 236.995C654.635 232.413 655.52 228.408 657.291 224.981C659.063 221.535 661.575 218.859 664.829 216.953C668.101 215.028 671.981 214.065 676.467 214.065C680.952 214.065 684.822 215.028 688.076 216.953C691.349 218.859 693.871 221.535 695.642 224.981C697.413 228.408 698.299 232.413 698.299 236.995C698.299 241.538 697.413 245.533 695.642 248.979C693.871 252.406 691.349 255.082 688.076 257.007C684.822 258.913 680.952 259.866 676.467 259.866ZM676.524 250.336C678.565 250.336 680.269 249.759 681.636 248.604C683.003 247.429 684.033 245.831 684.726 243.81C685.438 241.789 685.794 239.488 685.794 236.908C685.794 234.328 685.438 232.028 684.726 230.006C684.033 227.985 683.003 226.387 681.636 225.212C680.269 224.038 678.565 223.451 676.524 223.451C674.464 223.451 672.732 224.038 671.326 225.212C669.94 226.387 668.891 227.985 668.178 230.006C667.485 232.028 667.139 234.328 667.139 236.908C667.139 239.488 667.485 241.789 668.178 243.81C668.891 245.831 669.94 247.429 671.326 248.604C672.732 249.759 674.464 250.336 676.524 250.336ZM718.6 233.356V259H706.298V214.643H718.023V222.469H718.542C719.524 219.889 721.17 217.848 723.481 216.347C725.791 214.826 728.592 214.065 731.884 214.065C734.965 214.065 737.65 214.739 739.941 216.087C742.232 217.434 744.013 219.36 745.284 221.862C746.554 224.346 747.19 227.311 747.19 230.757V259H734.887V232.952C734.907 230.237 734.214 228.119 732.808 226.598C731.403 225.058 729.468 224.288 727.004 224.288C725.348 224.288 723.885 224.644 722.614 225.357C721.363 226.069 720.381 227.109 719.669 228.476C718.976 229.823 718.619 231.45 718.6 233.356Z" fill="black"/>
<rect x="90" y="223.744" width="72.0211" height="84.877" transform="rotate(-35.9637 90 223.744)" fill="#F2B518"/>
</svg>
